# xmcd
#
# Track frame offsets:
# 150
# 16428
# 30434
# 48285
# 67998
# 87115
# 104148
# 121553
# 134864
# 150631
# 170083
# 185772
# 203550
# 219600
#
# Disc length: 3139 seconds
#
#
# Revision: 0
# Processed by: cddbd v1.5.2PL0 Copyright (c) Steve Scherf et al.
# Submitted via: FreeRIP 2.96 
#
DISCID=c30c410e
DTITLE=Desejo de menina - Moldura
DYEAR=2007
DGENRE=Latin
TTITLE0=Moldura
TTITLE1=Uma vez e nunca mais
TTITLE2=Minha alma gêmea é você
TTITLE3=Sorte
TTITLE4=Vou te amando
TTITLE5=Rotina
TTITLE6=Coração
TTITLE7=Amor Imortal
TTITLE8=Vida vazia
TTITLE9=Mil perdões
TTITLE10=Contarei os minutos
TTITLE11=Só seu amor
TTITLE12=A nossa música
TTITLE13=Jane (Bonus Track)
EXTD=Cd da banda de forró desejo de menina, onde este repertório deu origem à gravação de seu primeiro dvd, músicas muito executadas no norte e nordeste, o destaque é para os vocais anasalados e sem nenhuma técnica da cantora loira, que alias só esta na 
EXTD=banda por sua beleza, que salva todo o resto, o galera dezabunitada , oxente!!!!!
EXTT0=
EXTT1=
EXTT2=
EXTT3=
EXTT4=
EXTT5=
EXTT6=
EXTT7=
EXTT8=
EXTT9=
EXTT10=
EXTT11=
EXTT12=
EXTT13=
PLAYORDER=
